<svg xmlns="http://www.w3.org/2000/svg" width="260" height="260" viewBox="0 0 260 260" version="1.1">
	<path d="M 148 33.152 C 107.934 37.326, 73.579 66.899, 63.548 105.850 C 59.708 120.763, 59.949 140.822, 64.151 156 C 73.255 188.885, 100.804 215.942, 133.850 224.452 C 147.836 228.054, 168.164 228.054, 182.150 224.452 C 210.912 217.045, 236.949 194.319, 248.118 166.874 C 257.813 143.052, 257.601 114.205, 247.566 91.545 L 244.929 85.591 238.914 91.606 L 232.899 97.621 235.310 106.061 C 236.637 110.702, 237.981 116.188, 238.298 118.250 L 238.874 122 230.937 122 L 223 122 223 130 L 223 138 230.975 138 L 238.950 138 238.382 141.250 C 231.931 178.173, 206.173 203.931, 169.250 210.382 L 166 210.950 166 202.975 L 166 195 158 195 L 150 195 150 202.975 L 150 210.950 146.750 210.382 C 109.827 203.931, 84.069 178.173, 77.618 141.250 L 77.050 138 85.025 138 L 93 138 93 130.042 L 93 122.084 85.250 121.792 L 77.500 121.500 77.807 118.500 C 79.399 102.968, 89.608 83.220, 102.129 71.452 C 114.442 59.881, 132.057 51.288, 146.500 49.807 L 149.500 49.500 149.792 57.250 L 150.084 65 158.042 65 L 166 65 166 57.025 L 166 49.050 169.250 49.618 C 177.368 51.036, 187.650 54.302, 193.887 57.443 L 200.691 60.870 206.435 55.066 L 212.178 49.263 209.101 47.072 C 207.409 45.867, 202.743 43.365, 198.732 41.512 C 183.350 34.405, 165.001 31.381, 148 33.152 M 199.741 84.756 L 158.012 126.485 144.734 113.233 L 131.455 99.982 125.737 105.760 L 120.019 111.539 139.014 130.514 L 158.009 149.489 205.519 101.978 L 253.030 54.467 247.250 48.747 L 241.470 43.027 199.741 84.756 M 1.762 259.707 C 3.006 259.946, 4.806 259.937, 5.762 259.687 C 6.718 259.437, 5.700 259.241, 3.500 259.252 C 1.300 259.263, 0.518 259.468, 1.762 259.707 M 13.784 259.738 C 16.689 259.941, 21.189 259.939, 23.784 259.734 C 26.378 259.528, 24 259.363, 18.500 259.365 C 13 259.368, 10.878 259.536, 13.784 259.738 " stroke="none" fill="#ed680f" fill-rule="evenodd"/>
</svg>