<?xml version="1.0" standalone="no"?>
<!DOCTYPE svg>
<svg version="1.0" xmlns="http://www.w3.org/2000/svg"
 width="575" height="575" viewBox="0 0 575 575"
 preserveAspectRatio="xMidYMid meet">

<g transform="translate(0,575) scale(0.100000,-0.100000)"
fill="#ed680f" stroke="none">
<path d="M2263 5449 c-51 -25 -96 -75 -89 -98 17 -57 106 -596 101 -612 -19
-59 -97 -78 -140 -34 -14 13 -25 30 -25 37 -1 25 -88 510 -94 515 -16 17 -225
-134 -303 -219 -177 -194 -268 -407 -298 -699 l-6 -57 -50 -4 c-159 -16 -204
-205 -70 -295 l34 -23 1201 2 1201 3 33 23 c43 31 66 77 66 132 0 89 -58 150
-149 158 l-52 4 -6 87 c-13 175 -85 380 -188 532 -55 82 -176 208 -259 268
-70 52 -148 97 -153 90 -2 -2 -25 -123 -50 -268 -39 -220 -50 -268 -68 -288
-48 -50 -139 -14 -139 54 0 20 23 166 51 325 l51 289 -28 31 c-61 64 -81 68
-316 68 -196 0 -216 -2 -255 -21z"/>
<path d="M1426 3748 c55 -402 170 -698 369 -954 143 -182 323 -310 520 -365
104 -30 296 -32 395 -5 383 105 707 499 841 1019 23 91 59 286 59 323 0 23 -3
24 -64 24 l-65 0 -6 -47 c-67 -476 -265 -848 -555 -1042 -224 -150 -463 -170
-700 -60 -205 96 -378 284 -501 544 -78 166 -138 373 -156 545 l-6 60 -69 0
-68 0 6 -42z"/>
<path d="M4759 3099 c-244 -36 -453 -234 -505 -479 -18 -85 -14 -216 9 -290
l14 -45 -598 -600 c-455 -457 -603 -611 -618 -645 -61 -134 10 -298 148 -345
57 -19 105 -19 167 1 44 15 106 73 654 621 l606 604 64 -17 c100 -26 236 -22
336 10 228 73 397 277 420 504 l6 57 -56 55 -56 55 -143 -143 -142 -142 -120
0 -120 0 -83 83 -82 82 0 123 0 123 140 141 141 142 -58 58 c-31 32 -60 57
-63 57 -3 -1 -30 -5 -61 -10z m-1425 -2053 c80 -33 102 -126 45 -190 -53 -61
-130 -58 -185 7 -22 27 -25 38 -22 79 6 53 27 84 73 104 38 17 49 17 89 0z"/>
<path d="M1486 2534 c-103 -19 -269 -74 -373 -124 -285 -138 -551 -409 -687
-701 -100 -214 -141 -418 -133 -659 8 -251 59 -393 187 -520 130 -129 285
-190 590 -232 74 -10 395 -13 1450 -13 1231 0 1366 2 1475 17 282 41 435 104
566 233 167 166 226 474 158 831 -21 113 -92 329 -115 353 -3 3 -255 -245
-562 -551 -531 -530 -560 -557 -617 -578 -86 -32 -217 -26 -297 13 -186 91
-261 340 -156 516 11 20 275 290 585 602 530 531 563 566 546 581 -36 32 -200
119 -288 153 -104 41 -257 81 -342 90 l-59 7 -12 -52 c-32 -140 -251 -517
-565 -975 -127 -184 -116 -170 -121 -164 -2 2 -13 137 -24 299 -20 277 -20
295 -4 304 43 23 129 124 145 171 23 66 23 100 0 89 -10 -4 -58 -18 -108 -31
-80 -22 -106 -24 -235 -20 -123 3 -157 8 -225 30 -43 14 -81 24 -84 21 -3 -2
1 -26 7 -52 18 -65 74 -147 127 -184 39 -28 45 -37 45 -67 -1 -67 -38 -552
-43 -557 -10 -10 -331 471 -474 709 -103 172 -202 373 -211 430 -7 38 -10 42
-37 44 -17 1 -66 -5 -109 -13z"/>
</g>
</svg>
