<svg width="24" height="24" viewBox="0 0 24 24" fill="none" xmlns="http://www.w3.org/2000/svg">
<path d="M8.66965 11.7016C9.44762 13.2921 10.7369 14.5755 12.3309 15.3463C12.4475 15.4015 12.5765 15.4255 12.7052 15.4157C12.8339 15.406 12.9579 15.3629 13.0648 15.2907L15.4119 13.7256C15.5157 13.6564 15.6352 13.6142 15.7594 13.6028C15.8837 13.5914 16.0088 13.6111 16.1235 13.6603L20.5144 15.5421C20.6636 15.6055 20.7881 15.7156 20.8693 15.8559C20.9504 15.9962 20.9838 16.159 20.9643 16.3199C20.8255 17.4059 20.2956 18.4041 19.4739 19.1276C18.6521 19.851 17.5948 20.2502 16.5 20.2502C13.1185 20.2502 9.87548 18.9069 7.48439 16.5158C5.0933 14.1247 3.75 10.8817 3.75 7.50021C3.75006 6.40538 4.14918 5.3481 4.87264 4.52635C5.5961 3.7046 6.59428 3.17472 7.68028 3.03593C7.84117 3.01646 8.00403 3.04981 8.14432 3.13094C8.28461 3.21208 8.39473 3.3366 8.4581 3.48577L10.3416 7.88057C10.3903 7.99424 10.4101 8.1182 10.3994 8.24141C10.3886 8.36461 10.3475 8.48323 10.2798 8.58672L8.72011 10.9698C8.64912 11.077 8.60716 11.2008 8.59831 11.3291C8.58947 11.4573 8.61405 11.5857 8.66965 11.7016V11.7016Z" stroke="white" stroke-width="1.5" stroke-linecap="round" stroke-linejoin="round"/>
</svg>
