<?xml version="1.0" standalone="no"?>
<!DOCTYPE svg>
<svg version="1.0" xmlns="http://www.w3.org/2000/svg"
 width="270" height="350" viewBox="0 0 260 370"
 preserveAspectRatio="xMidYMid meet">

<g transform="translate(0.000000,340.000000) scale(0.0900000,-0.0900000)"
fill="#ed680f" stroke="none">
<path d="M970 3379 c-69 -31 -108 -66 -141 -124 l-30 -53 -123 -4 c-139 -3
-162 -13 -168 -72 l-3 -31 -150 -5 c-131 -5 -156 -8 -195 -29 -61 -31 -107
-76 -136 -133 l-24 -47 0 -1111 0 -1111 25 -48 c13 -27 45 -67 70 -89 84 -73
70 -72 702 -72 321 0 563 4 563 9 0 5 -13 37 -29 72 -16 35 -31 71 -34 80 -5
14 -60 17 -532 21 l-527 5 -26 27 -27 26 -3 993 c-1 545 1 1034 5 1086 7 87
10 95 36 115 25 19 42 21 147 20 66 0 122 -3 125 -6 3 -3 8 -36 12 -74 10
-114 -43 -104 560 -104 l524 0 24 25 c22 21 25 33 25 96 l0 72 130 -7 c72 -4
137 -9 146 -13 43 -16 44 -27 44 -715 1 -359 4 -658 8 -664 4 -5 43 -16 86
-22 64 -10 81 -10 88 0 11 18 10 1279 -2 1358 -13 90 -65 164 -145 205 -56 29
-65 30 -207 34 -147 3 -148 3 -148 27 0 12 -11 36 -24 51 -24 27 -27 28 -148
31 l-124 4 -24 44 c-67 128 -228 189 -350 133z m135 -139 c7 0 27 -11 44 -25
28 -24 41 -51 55 -118 10 -42 56 -57 176 -57 l100 0 0 -85 0 -85 -410 0 -410
0 0 84 0 84 121 4 c136 3 150 11 164 85 13 70 84 132 133 117 8 -2 20 -4 27
-4z"/>
<path d="M748 2520 c-9 -6 -49 -52 -89 -103 -39 -50 -76 -96 -80 -101 -5 -6
-25 8 -47 32 -44 48 -75 53 -116 21 -43 -34 -36 -71 34 -164 33 -44 68 -86 77
-92 28 -21 68 -15 98 15 32 31 196 246 213 279 21 38 15 80 -14 102 -29 23
-50 26 -76 11z"/>
<path d="M931 2324 c-28 -35 -27 -75 2 -102 23 -22 27 -22 385 -22 349 0 363
1 382 20 24 24 26 77 4 108 l-15 22 -369 0 -369 0 -20 -26z"/>
<path d="M743 1944 c-6 -3 -46 -50 -88 -105 -43 -54 -81 -99 -85 -99 -5 0 -21
17 -38 37 -24 30 -36 37 -65 37 -47 0 -77 -27 -77 -69 0 -23 15 -52 51 -101
79 -107 88 -114 131 -114 35 0 42 5 96 73 87 110 180 241 182 257 10 65 -46
108 -107 84z"/>
<path d="M963 1773 c-52 -10 -70 -84 -30 -121 23 -22 27 -22 389 -22 341 0
366 1 381 18 18 19 23 78 9 100 -5 7 -24 17 -43 22 -33 10 -659 12 -706 3z"/>
<path d="M1875 1440 c-147 -22 -250 -75 -361 -185 -63 -62 -90 -99 -122 -162
-53 -108 -65 -169 -60 -317 3 -102 8 -131 30 -184 104 -251 309 -404 563 -419
295 -17 551 163 651 457 28 83 26 281 -5 370 -65 189 -207 338 -386 406 -54
20 -213 47 -250 43 -5 -1 -32 -5 -60 -9z m210 -165 c233 -61 386 -289 355
-530 -33 -262 -287 -455 -547 -415 -132 20 -270 112 -344 227 -61 98 -85 245
-58 363 38 164 192 321 355 359 62 14 175 12 239 -4z"/>
<path d="M2152 1053 c-11 -10 -73 -87 -137 -171 -64 -84 -120 -152 -124 -150
-4 2 -32 32 -62 68 -61 72 -92 92 -123 81 -33 -13 -60 -55 -52 -84 3 -14 48
-81 99 -149 87 -116 94 -123 130 -126 21 -2 45 2 53 9 16 13 226 289 293 384
49 69 53 104 15 134 -33 26 -65 27 -92 4z"/>
<path d="M737 1360 c-19 -15 -110 -126 -163 -198 -1 -2 -19 15 -39 37 -30 33
-44 41 -71 41 -42 0 -74 -30 -74 -68 0 -47 122 -207 166 -218 38 -10 65 15
183 173 89 118 111 154 111 180 0 64 -62 93 -113 53z"/>
<path d="M967 1200 c-56 -17 -74 -76 -38 -121 19 -23 24 -24 200 -27 l180 -3
38 73 c21 40 39 76 41 81 5 10 -386 7 -421 -3z"/>
</g>
</svg>
