<svg xmlns="http://www.w3.org/2000/svg" version="1.1" width="49" height="460" x="0" y="0" viewBox="0 0 180 110" xml:space="preserve">
    <style>
      .st1{fill:#fff}.st2{fill:#f9d1bb}
    </style>
    <path class="st1" d="M163.3 49.1C146.9 54.8 134 70.4 130.9 90c-.1.7.4 1.3 1.1 1.3h13.1c4.5 0 8.4-3.1 9.5-7.4l8.7-34.8z"/>
    <path class="st2" d="M82.2 89.7c-.3.7.2 1.6 1 1.6h27.1c.8 0 1.5-.5 1.7-1.3 6.9-23.1 24.5-41.5 51.4-47 .8-.2 1.5-.8 1.7-1.6l1.5-6.2C132.2 36.9 97.7 54 82.2 89.7M172.1 13.6l1.4-5.3H58c-5.1 0-9.5 3.5-10.7 8.4l-4.9 19.9c-.3 1.4 1 2.5 2.3 2C79 23.4 122.8 15.4 170 15.3c1 0 1.9-.7 2.1-1.7"/>
    <path class="st1" d="M35.2 65.2l-4.3 17.3c-1.1 4.4 2.3 8.7 6.8 8.7h20.4c.9 0 1.8-.5 2.2-1.4C77.5 54.7 113.2 31.4 166.8 29c.9 0 1.8-.7 2-1.6l1.4-5.8c-56.9.6-98.8 14.3-132.5 39.9-1.3.9-2.2 2.2-2.5 3.7"/>
  </svg>
  
