<svg xmlns="http://www.w3.org/2000/svg" width="225" height="225" viewBox="0 0 225 225" version="1.1">
	<path d="M 57.829 50.999 C 42.798 66.398, 30.374 79.572, 30.220 80.274 C 30.066 80.977, 35.094 86.636, 41.393 92.852 C 51.275 102.601, 53.111 104.011, 54.769 103.124 C 57.185 101.831, 110.401 47.220, 110.776 45.649 C 111.135 44.145, 88.616 23, 86.655 23 C 85.831 23, 72.859 35.599, 57.829 50.999 M 180.733 33.766 C 174.830 39.688, 170 45.203, 170 46.023 C 170 47.490, 223.809 102, 225.257 102 C 225.666 102, 226 99.948, 226 97.441 C 226 94.934, 225.634 93.108, 225.186 93.385 C 224.739 93.662, 213.605 83.113, 200.444 69.944 L 176.515 46 184.756 37.760 L 192.996 29.519 208.795 45.296 C 217.485 53.973, 224.911 60.756, 225.297 60.369 C 226.287 59.380, 226.178 51.772, 225.183 52.387 C 224.734 52.664, 217.652 46.166, 209.446 37.946 C 201.239 29.726, 193.837 23, 192.995 23 C 192.154 23, 186.636 27.845, 180.733 33.766 M 61.635 55.411 L 36.976 80.822 44.973 88.161 C 49.372 92.197, 53.373 95.500, 53.864 95.500 C 54.356 95.500, 65.685 84.333, 79.041 70.685 L 103.324 45.870 95.435 37.935 C 91.097 33.571, 87.265 30, 86.921 30 C 86.576 30, 75.198 41.435, 61.635 55.411 M 1.010 57.516 C 1.021 61.660, 1.056 61.708, 14.861 76.262 L 18.429 80.024 10.538 87.962 C 6.198 92.328, 2.276 95.671, 1.823 95.391 C 1.371 95.111, 1 96.709, 1 98.941 C 1 101.549, 1.453 103, 2.266 103 C 2.963 103, 8.635 97.883, 14.871 91.630 C 24.613 81.860, 26.063 79.994, 25.171 78.380 C 24.600 77.346, 18.928 71.332, 12.566 65.016 L 1 53.533 1.010 57.516 M 106.152 57.842 C 105.410 58.336, 104.965 59.581, 105.163 60.609 C 105.432 62.002, 106.756 62.655, 110.362 63.171 C 116.830 64.096, 122.485 66.450, 128.349 70.658 C 133.433 74.308, 136 74.436, 136 71.041 C 136 65.296, 111.336 54.389, 106.152 57.842 M 160.909 58.873 C 157.834 59.870, 153.109 62.190, 150.409 64.029 C 143.629 68.647, 104.853 108.001, 105.218 109.894 C 105.652 112.148, 112.856 116.770, 118.039 118.120 C 125.481 120.058, 129.171 118.746, 136.967 111.392 L 143.861 104.889 147.891 106.944 C 152.551 109.322, 159.573 109.625, 164.282 107.652 C 168.940 105.700, 174 101.132, 174 98.880 C 174 95.521, 171.374 95.735, 166.103 99.521 C 159.509 104.259, 153.824 104.629, 148.618 100.658 C 146.701 99.196, 144.591 98, 143.928 98 C 143.265 98, 139.190 101.375, 134.872 105.500 C 128.126 111.945, 126.524 113, 123.479 113 C 119.658 113, 113 110.629, 113 109.268 C 113 108.809, 121.888 99.611, 132.750 88.827 C 154.180 67.552, 158.908 64.196, 169 63.098 C 174.040 62.550, 174.500 62.291, 174.500 60 C 174.500 57.787, 174.041 57.475, 170.500 57.280 C 168.300 57.159, 163.984 57.876, 160.909 58.873 M 65.351 99.529 C 65.028 100.370, 64.956 103.716, 65.191 106.965 C 65.953 117.495, 74.452 130.359, 78.454 127.038 C 80.527 125.317, 80.430 124.793, 77.406 121.406 C 73.500 117.030, 71.046 111.044, 71.022 105.832 C 71.010 103.264, 70.727 100.452, 70.393 99.582 C 69.617 97.560, 66.120 97.524, 65.351 99.529 M 210.553 99.250 C 210.342 99.938, 209.931 102.832, 209.640 105.682 C 209.027 111.682, 206.033 118.184, 201.859 122.582 C 198.763 125.844, 198.788 129, 201.911 129 C 208.086 129, 218.016 107.928, 215.531 100.099 C 214.807 97.815, 211.184 97.197, 210.553 99.250 M 172.330 112.583 C 171.921 113.648, 173.696 116.185, 177.752 120.333 C 192.477 135.395, 198.042 141.660, 198.630 143.837 C 199.509 147.096, 196.122 151.419, 192.401 151.785 C 189.889 152.033, 188.035 150.599, 178.575 141.094 C 169.405 131.879, 167.357 130.274, 165.825 131.094 C 164.821 131.631, 164 132.567, 164 133.173 C 164 133.780, 170.075 140.452, 177.500 148 C 189.050 159.741, 191 162.177, 191 164.862 C 191 168.535, 187.987 172, 184.793 172 C 183.294 172, 178.046 167.499, 168.440 157.975 C 158.169 147.791, 153.843 144.123, 152.647 144.582 C 149.388 145.833, 151.169 148.703, 161.607 159.018 C 173.358 170.631, 178 176.344, 178 179.195 C 178 181.775, 173.591 186, 170.898 186 C 169.502 186, 166.812 183.916, 163.492 180.262 C 158.906 175.217, 158.080 174.689, 156.639 175.885 C 154.310 177.817, 154.554 178.763, 158.500 183.132 C 162.390 187.437, 162.900 190.667, 160.216 193.982 C 158.378 196.251, 155.920 196.612, 150.250 195.443 C 147.347 194.844, 147 195.013, 147 197.026 C 147 200.236, 149.785 201.931, 155.115 201.968 C 160.586 202.006, 164.523 199.386, 166.651 194.292 C 167.426 192.437, 168.508 191.196, 169.055 191.534 C 170.765 192.591, 175.921 190.937, 179.005 188.342 C 180.632 186.974, 182.411 184.189, 182.959 182.154 C 183.800 179.027, 184.612 178.225, 188.195 176.977 C 193.892 174.992, 197.305 170.012, 196.746 164.500 C 196.523 162.300, 196.034 159.825, 195.659 158.999 C 195.180 157.944, 195.907 157.087, 198.105 156.114 C 200.250 155.164, 201.859 153.313, 203.229 150.215 C 206.541 142.727, 205.071 139.904, 189.726 124.296 C 177.061 111.413, 173.658 109.122, 172.330 112.583 M 92.500 120.401 C 87.819 122.465, 72.223 139.217, 71.802 142.635 C 71.024 148.934, 75.290 156.103, 80.610 157.438 C 82.565 157.929, 83 158.680, 83 161.569 C 83 168.627, 88.099 174, 94.799 174 C 97.246 174, 97.938 174.616, 99.250 177.955 C 101.155 182.803, 105.986 185.983, 111.500 186.018 C 114.998 186.040, 115.688 186.441, 117 189.211 C 119.214 193.885, 123.357 196.500, 128.551 196.500 C 132.739 196.500, 133.373 196.085, 141.440 188.059 C 146.567 182.959, 150.169 178.509, 150.541 176.813 C 151.909 170.583, 146.676 162.966, 140.024 161.505 C 137.741 161.004, 137 160.285, 137 158.568 C 137 154.316, 132.850 149.617, 127.731 148.074 C 123.494 146.796, 123 146.342, 123 143.724 C 123 139.616, 117.283 134, 113.100 134 C 110.247 134, 110 133.731, 110 130.635 C 110 126.767, 107.140 122.641, 102.961 120.480 C 99.475 118.677, 96.461 118.655, 92.500 120.401 M 86.401 133.250 C 77.064 142.508, 75.815 145.223, 79.016 149.293 C 82.880 154.205, 86.011 153.153, 95.591 143.722 C 103.102 136.329, 104 135.053, 104 131.779 C 104 129.125, 103.387 127.684, 101.777 126.557 C 97.480 123.546, 95.177 124.549, 86.401 133.250 M 109 139.703 C 108.175 139.991, 103.338 144.330, 98.250 149.344 C 90.514 156.968, 89 158.970, 89 161.575 C 89 165.363, 91.659 168, 95.478 168 C 97.694 168, 100.320 166.009, 107.710 158.726 C 115.652 150.899, 117.136 148.939, 117.214 146.165 C 117.346 141.552, 113.150 138.251, 109 139.703 M 112.947 161.675 C 106.120 168.501, 104 171.259, 104 173.311 C 104 176.960, 107.265 180, 111.186 180 C 113.845 180, 115.746 178.625, 122.686 171.686 C 129.403 164.969, 131 162.796, 131 160.377 C 131 156.358, 129.178 154.160, 125.197 153.378 C 122.072 152.764, 121.410 153.212, 112.947 161.675 M 128.225 174.274 C 120.262 182.290, 119.495 184.585, 123.455 188.545 C 127.456 192.547, 129.795 191.761, 137.775 183.726 C 145.738 175.710, 146.505 173.415, 142.545 169.455 C 138.544 165.453, 136.205 166.239, 128.225 174.274 M 1.762 224.707 C 3.006 224.946, 4.806 224.937, 5.762 224.687 C 6.718 224.437, 5.700 224.241, 3.500 224.252 C 1.300 224.263, 0.518 224.468, 1.762 224.707 M 12.750 224.737 C 15.638 224.939, 20.363 224.939, 23.250 224.737 C 26.138 224.535, 23.775 224.370, 18 224.370 C 12.225 224.370, 9.863 224.535, 12.750 224.737 " stroke="none" fill="#ed680f" fill-rule="evenodd"/>
</svg>