<?xml version="1.0" standalone="no"?>
<!DOCTYPE svg>
<svg version="1.0" xmlns="http://www.w3.org/2000/svg"
 width="200" height="200" viewBox="0 0 200 200"
 preserveAspectRatio="xMidYMid meet">

<g transform="translate(0.000000,200) scale(0.100000,-0.100000)"
fill="#ed680f" stroke="#ed680f">
<path d="M864 1986 c-232 -53 -426 -227 -495 -446 -30 -93 -36 -246 -14 -344
25 -117 85 -225 172 -317 l74 -78 -84 -233 c-47 -128 -82 -234 -78 -236 5 -1
66 18 136 43 70 25 129 44 130 43 1 -2 33 -59 70 -127 38 -69 71 -119 73 -113
2 7 34 97 72 199 l67 186 20 -54 c11 -30 55 -151 98 -269 43 -118 81 -219 85
-223 4 -5 38 46 75 112 36 67 68 121 70 121 2 0 61 -20 132 -45 70 -25 130
-45 134 -45 3 0 -45 141 -108 313 l-114 314 84 84 c57 58 95 106 120 156 195
375 4 823 -403 948 -75 23 -239 28 -316 11z m271 -101 c202 -52 369 -222 415
-424 57 -246 -69 -514 -294 -625 -170 -84 -339 -85 -509 -2 -91 45 -152 98
-211 183 -221 325 -56 767 324 867 73 19 201 20 275 1z m-387 -1159 c31 -13
83 -29 115 -36 31 -7 57 -17 57 -22 0 -4 -21 -65 -47 -135 -51 -140 -48 -139
-99 -41 l-24 48 -81 -30 c-59 -21 -79 -25 -75 -15 3 8 24 68 48 135 24 66 44
120 46 120 1 0 28 -11 60 -24z m621 -195 c40 -111 71 -204 69 -207 -3 -2 -38
7 -77 22 -39 15 -73 25 -75 23 -2 -2 -19 -33 -39 -69 -34 -61 -36 -63 -45 -40
-5 14 -39 106 -75 205 -36 99 -68 188 -72 198 -6 14 -2 17 21 17 35 0 115 21
164 43 19 8 40 14 45 13 6 -2 43 -94 84 -205z"/>
<path d="M1099 1379 l-144 -230 -103 107 -104 106 -34 -33 -34 -33 52 -55 c29
-31 94 -100 144 -153 l93 -97 176 280 c124 197 173 284 166 292 -5 7 -23 20
-39 29 l-30 18 -143 -231z"/>
</g>
</svg>
